<svg id="visual" viewBox="0 0 960 540" width="960" height="540" xmlns="http://www.w3.org/2000/svg" xmlns:xlink="http://www.w3.org/1999/xlink" version="1.1"><rect x="0" y="0" width="960" height="540" fill="#fffaec"></rect><path d="M0 235L22.8 248.5C45.7 262 91.3 289 137 291.3C182.7 293.7 228.3 271.3 274 260.2C319.7 249 365.3 249 411.2 257C457 265 503 281 548.8 281.8C594.7 282.7 640.3 268.3 686 261.2C731.7 254 777.3 254 823 255.7C868.7 257.3 914.3 260.7 937.2 262.3L960 264L960 541L937.2 541C914.3 541 868.7 541 823 541C777.3 541 731.7 541 686 541C640.3 541 594.7 541 548.8 541C503 541 457 541 411.2 541C365.3 541 319.7 541 274 541C228.3 541 182.7 541 137 541C91.3 541 45.7 541 22.8 541L0 541Z" fill="#fff3c1"></path><path d="M0 375L22.8 377C45.7 379 91.3 383 137 383C182.7 383 228.3 379 274 369.5C319.7 360 365.3 345 411.2 335.7C457 326.3 503 322.7 548.8 316.8C594.7 311 640.3 303 686 297.5C731.7 292 777.3 289 823 293.5C868.7 298 914.3 310 937.2 316L960 322L960 541L937.2 541C914.3 541 868.7 541 823 541C777.3 541 731.7 541 686 541C640.3 541 594.7 541 548.8 541C503 541 457 541 411.2 541C365.3 541 319.7 541 274 541C228.3 541 182.7 541 137 541C91.3 541 45.7 541 22.8 541L0 541Z" fill="#d8cc94"></path><path d="M0 364L22.8 369.2C45.7 374.3 91.3 384.7 137 386.8C182.7 389 228.3 383 274 386.2C319.7 389.3 365.3 401.7 411.2 402.5C457 403.3 503 392.7 548.8 378.8C594.7 365 640.3 348 686 354.2C731.7 360.3 777.3 389.7 823 398.3C868.7 407 914.3 395 937.2 389L960 383L960 541L937.2 541C914.3 541 868.7 541 823 541C777.3 541 731.7 541 686 541C640.3 541 594.7 541 548.8 541C503 541 457 541 411.2 541C365.3 541 319.7 541 274 541C228.3 541 182.7 541 137 541C91.3 541 45.7 541 22.8 541L0 541Z" fill="#c2b57b"></path><path d="M0 458L22.8 458.2C45.7 458.3 91.3 458.7 137 457.7C182.7 456.7 228.3 454.3 274 456.3C319.7 458.3 365.3 464.7 411.2 464C457 463.3 503 455.7 548.8 456.8C594.7 458 640.3 468 686 458.8C731.7 449.7 777.3 421.3 823 418.7C868.7 416 914.3 439 937.2 450.5L960 462L960 541L937.2 541C914.3 541 868.7 541 823 541C777.3 541 731.7 541 686 541C640.3 541 594.7 541 548.8 541C503 541 457 541 411.2 541C365.3 541 319.7 541 274 541C228.3 541 182.7 541 137 541C91.3 541 45.7 541 22.8 541L0 541Z" fill="#d8cc94"></path><path d="M0 518L22.8 518.2C45.7 518.3 91.3 518.7 137 515.3C182.7 512 228.3 505 274 502.8C319.7 500.7 365.3 503.3 411.2 497C457 490.7 503 475.3 548.8 464C594.7 452.7 640.3 445.3 686 452.7C731.7 460 777.3 482 823 492.3C868.7 502.7 914.3 501.3 937.2 500.7L960 500L960 541L937.2 541C914.3 541 868.7 541 823 541C777.3 541 731.7 541 686 541C640.3 541 594.7 541 548.8 541C503 541 457 541 411.2 541C365.3 541 319.7 541 274 541C228.3 541 182.7 541 137 541C91.3 541 45.7 541 22.8 541L0 541Z" fill="#fff3c1"></path></svg>