<svg id="visual" viewBox="0 0 900 600" width="900" height="600" xmlns="http://www.w3.org/2000/svg" xmlns:xlink="http://www.w3.org/1999/xlink" version="1.1"><path d="M0 55L129 43L257 73L386 31L514 67L643 25L771 79L900 49L900 0L771 0L643 0L514 0L386 0L257 0L129 0L0 0Z" fill="#e2fffb"></path><path d="M0 121L129 145L257 163L386 103L514 139L643 121L771 187L900 145L900 47L771 77L643 23L514 65L386 29L257 71L129 41L0 53Z" fill="#e4eee3"></path><path d="M0 169L129 199L257 223L386 163L514 199L643 157L771 235L900 193L900 143L771 185L643 119L514 137L386 101L257 161L129 143L0 119Z" fill="#e0ded7"></path><path d="M0 205L129 223L257 247L386 199L514 247L643 187L771 253L900 223L900 191L771 233L643 155L514 197L386 161L257 221L129 197L0 167Z" fill="#d5d3d2"></path><path d="M0 379L129 355L257 373L386 319L514 355L643 283L771 355L900 409L900 221L771 251L643 185L514 245L386 197L257 245L129 221L0 203Z" fill="#d5d3d2"></path><path d="M0 433L129 451L257 427L386 391L514 439L643 379L771 433L900 451L900 407L771 353L643 281L514 353L386 317L257 371L129 353L0 377Z" fill="#e0ded7"></path><path d="M0 571L129 547L257 547L386 535L514 541L643 535L771 529L900 553L900 449L771 431L643 377L514 437L386 389L257 425L129 449L0 431Z" fill="#e4eee3"></path><path d="M0 601L129 601L257 601L386 601L514 601L643 601L771 601L900 601L900 551L771 527L643 533L514 539L386 533L257 545L129 545L0 569Z" fill="#e2fffb"></path></svg>