<svg xmlns="http://www.w3.org/2000/svg" width="274.835" height="342.359" viewBox="0 0 274.835 342.359">
  <g id="Group_47" data-name="Group 47" transform="translate(-1299.849 -156.978)">
    <g id="Group_46" data-name="Group 46" transform="translate(1299.849 150.989)">
      <g id="Group_41" data-name="Group 41" transform="translate(20.814 0)">
        <g id="Group_43" data-name="Group 43" transform="translate(0 0)">
          <g id="Group_42" data-name="Group 42">
            <g id="coffee-cup2" transform="matrix(0.966, 0.259, -0.259, 0.966, 78.202, 0)">
              <path id="Path_16" data-name="Path 16" d="M127.29,224.649H39.4a18.992,18.992,0,0,1-18.213-19.09L9.13,72.848,0,45.256V18.213A18.213,18.213,0,0,1,18.213,0H145.16a18.213,18.213,0,0,1,18.213,18.213V45.746l-6.791,27.1L145.648,206.437a18.213,18.213,0,0,1-18.36,18.213Z" transform="translate(7.323 69.928)" fill="#fff"/>
              <path id="Path_17" data-name="Path 17" d="M54,0H0V224.6H36.082a18.213,18.213,0,0,0,18.213-18.213L65.378,72.848l6.737-27.1V18.213A18.213,18.213,0,0,0,54,0Z" transform="translate(98.531 69.928)" fill="#e5e5e5"/>
              <path id="Path_18" data-name="Path 18" d="M0,0,6.1,18.36,17.97,151.07a18.992,18.992,0,0,0,18.406,19.09h87.886a18.213,18.213,0,0,0,18.213-18.213L153.559,18.36,158.442,0Z" transform="translate(10.351 124.419)" fill="#844e40"/>
              <path id="Path_19" data-name="Path 19" d="M0,170.158H36.082a18.213,18.213,0,0,0,18.213-18.213L65.378,18.357,70.262,0H0Z" transform="translate(98.531 124.419)" fill="#5e3128"/>
              <path id="Path_20" data-name="Path 20" d="M134.613,239.543H46.727A26.367,26.367,0,0,1,21.191,213.47L9.228,81.686,0,54V25.536A25.585,25.585,0,0,1,25.536,0H152.485A25.585,25.585,0,0,1,178.02,25.536v29.3l-6.786,26.563L160.3,214.105A25.585,25.585,0,0,1,134.613,239.543ZM14.636,51.414l9.071,28.124L35.621,212.884A11.669,11.669,0,0,0,46.7,224.9h87.908A10.887,10.887,0,0,0,145.5,214.01v-.831l11.378-134.76,6.543-26.271V25.536a10.887,10.887,0,0,0-10.887-10.887H25.585A10.887,10.887,0,0,0,14.7,25.536Z" transform="translate(0 62.605)" fill="#35251c"/>
              <rect id="Rectangle_4" data-name="Rectangle 4" width="14.648" height="286.414" rx="0.9" transform="translate(16.881 1.676) rotate(-6.57)" fill="#35251c"/>
              <rect id="Rectangle_5" data-name="Rectangle 5" width="48.338" height="48.338" rx="2.5" transform="translate(99.254 152.134) rotate(66.76)" fill="#fff"/>
              <rect id="Rectangle_6" data-name="Rectangle 6" width="48.338" height="48.338" rx="2.5" transform="translate(128.95 256.004) rotate(180)" fill="#fff"/>
              <path id="Path_21" data-name="Path 21" d="M18.213,0H0V48.3H18.213a12.157,12.157,0,0,0,12.206-12.16V12.157A12.157,12.157,0,0,0,18.213,0Z" transform="translate(98.531 207.715)" fill="#e5e5e5"/>
              <path id="Path_22" data-name="Path 22" d="M5.518,5.908A11.866,11.866,0,0,0,0,0V47.6l8.593-3.663a12.206,12.206,0,0,0,6.4-16.016Z" transform="translate(98.531 157.424)" fill="#e5e5e5"/>
              <rect id="Rectangle_7" data-name="Rectangle 7" width="48.338" height="48.338" rx="2.5" transform="translate(156.01 129.658) rotate(108.652)" fill="#e5e5e5"/>
            </g>
          </g>
        </g>
      </g>
      <path id="Polygon_4" data-name="Polygon 4" d="M12.938,0,25.875,22.269H0Z" transform="matrix(-0.839, 0.545, -0.545, -0.839, 162.806, 41.986)" fill="#7209b7"/>
      <path id="Polygon_3" data-name="Polygon 3" d="M22.8,0l22.8,39.658H0Z" transform="translate(10.264 77.869) rotate(15)" fill="#7209b7"/>
      <path id="Polygon_6" data-name="Polygon 6" d="M22.8,0l22.8,39.658H0Z" transform="translate(79.315 310.041) rotate(-15)" fill="#7209b7"/>
      <path id="Polygon_2" data-name="Polygon 2" d="M15.582,0,31.164,27.1H0Z" transform="matrix(-0.866, 0.5, -0.5, -0.866, 274.835, 237.958)" fill="#7209b7"/>
      <path id="Polygon_5" data-name="Polygon 5" d="M11.26,0,22.52,19.583H0Z" transform="translate(22.52 206.974) rotate(-180)" fill="#7209b7"/>
      <circle id="Ellipse_4" data-name="Ellipse 4" cx="13.88" cy="13.88" r="13.88" transform="translate(48.97 153.487)" fill="#f3558e"/>
      <circle id="Ellipse_9" data-name="Ellipse 9" cx="13.88" cy="13.88" r="13.88" transform="translate(62.85 28.566)" fill="#f3558e"/>
      <circle id="Ellipse_5" data-name="Ellipse 5" cx="8.923" cy="8.923" r="8.923" transform="translate(198.677 303.195)" fill="#f3558e"/>
      <circle id="Ellipse_6" data-name="Ellipse 6" cx="14.376" cy="14.376" r="14.376" transform="translate(234.369 269.486)" fill="#f3558e"/>
      <circle id="Ellipse_10" data-name="Ellipse 10" cx="19.333" cy="19.333" r="19.333" transform="translate(192.729 225.862)" fill="#f3558e"/>
      <circle id="Ellipse_8" data-name="Ellipse 8" cx="14.376" cy="14.376" r="14.376" transform="translate(24.184 284.357)" fill="#f3558e"/>
      <circle id="Ellipse_7" data-name="Ellipse 7" cx="10.41" cy="10.41" r="10.41" transform="translate(17.244 225.862)" fill="#f3558e"/>
      <g id="Group_44" data-name="Group 44" transform="matrix(0.985, 0.174, -0.174, 0.985, 238.758, 75.88)">
        <line id="Line_1" data-name="Line 1" y2="9.724" transform="translate(4.862)" fill="none" stroke="#7209b7" stroke-width="1"/>
        <line id="Line_2" data-name="Line 2" x1="9.724" y2="0.221" transform="translate(0 4.641)" fill="none" stroke="#7209b7" stroke-width="1"/>
      </g>
      <g id="Group_45" data-name="Group 45" transform="translate(48.045 78.738) rotate(-30)">
        <line id="Line_1-2" data-name="Line 1" y2="16.551" transform="translate(8.786 0)" fill="none" stroke="#7209b7" stroke-width="1"/>
        <line id="Line_2-2" data-name="Line 2" x1="17.571" y2="0.221" transform="translate(0 7.975)" fill="none" stroke="#7209b7" stroke-width="1"/>
      </g>
      <g id="Group_48" data-name="Group 48" transform="translate(16.168 146.515) rotate(-8)">
        <line id="Line_1-3" data-name="Line 1" y2="16.551" transform="translate(8.786 0)" fill="none" stroke="#7209b7" stroke-width="1"/>
        <line id="Line_2-3" data-name="Line 2" x1="17.571" y2="0.221" transform="translate(0 7.975)" fill="none" stroke="#7209b7" stroke-width="1"/>
      </g>
      <g id="Group_11" data-name="Group 11" transform="translate(139.191 56.679)">
        <g id="Group_3" data-name="Group 3" transform="translate(0 0)">
          <g id="Group_1" data-name="Group 1" transform="translate(0 1.576) rotate(-1)">
            <g id="doge" transform="translate(0 0)">
              <circle id="Ellipse_2" data-name="Ellipse 2" cx="45.145" cy="45.145" r="45.145" fill="#7209b7"/>
              <path id="Path_6" data-name="Path 6" d="M12.042,18.745H24.274v6.482H12.042V38.886h7.7a19.306,19.306,0,0,0,7.495-1.239,10.958,10.958,0,0,0,4.579-3.434,12.475,12.475,0,0,0,2.258-5.151,32.318,32.318,0,0,0,.6-6.385,32.318,32.318,0,0,0-.6-6.385,12.463,12.463,0,0,0-2.258-5.151,10.975,10.975,0,0,0-4.579-3.434,19.306,19.306,0,0,0-7.495-1.219H12.019v12.26ZM4.2,25.227H0V18.748H4.2V.006H22.768a20.719,20.719,0,0,1,8.909,1.777,16.6,16.6,0,0,1,6.147,4.865,20.891,20.891,0,0,1,3.543,7.209,32.51,32.51,0,0,1,1.159,8.831,32.518,32.518,0,0,1-1.162,8.831,20.808,20.808,0,0,1-3.543,7.209,16.573,16.573,0,0,1-6.144,4.865,20.685,20.685,0,0,1-8.909,1.777H4.2Z" transform="translate(25.516 22.674)" fill="#fff" fill-rule="evenodd"/>
            </g>
          </g>
        </g>
      </g>
    </g>
  </g>
</svg>
