<svg xmlns="http://www.w3.org/2000/svg" width="414.739" height="395.786" viewBox="0 0 414.739 395.786">
  <g id="Group_47" data-name="Group 47" transform="translate(-1211.986 -128)">
    <path id="Path_65" data-name="Path 65" d="M331.265,69.964c22.542,71.641-6.794,158.413-74.42,211.835-67.318,53.422-172.618,73.494-243.95,26.248C-58.438,261.11-95.494,147.163-65.54,65.64S61.376-64.672,147.531-60.967C233.685-57.57,308.414-1.369,331.265,69.964Z" transform="translate(1287.967 189.164)" fill="#f4fa9c" opacity="0.49"/>
    <g id="Group_46" data-name="Group 46" transform="translate(1296.864 150.208)">
      <g id="Group_41" data-name="Group 41" transform="translate(20.107 0)">
        <g id="Group_43" data-name="Group 43">
          <g id="Group_42" data-name="Group 42" transform="translate(0 0)">
            <g id="coffee-cup2" transform="matrix(0.966, 0.259, -0.259, 0.966, 75.545, 0)">
              <path id="Path_16" data-name="Path 16" d="M122.966,217.018H38.058a18.347,18.347,0,0,1-17.594-18.442L8.82,70.374,0,43.719V17.594A17.594,17.594,0,0,1,17.594,0H140.229a17.594,17.594,0,0,1,17.594,17.594v26.6l-6.56,26.181L140.7,199.424a17.594,17.594,0,0,1-17.736,17.594Z" transform="translate(7.074 67.552)" fill="#fff"/>
              <path id="Path_17" data-name="Path 17" d="M52.166,0H0V216.971H34.856a17.594,17.594,0,0,0,17.594-17.594l10.707-129,6.508-26.181v-26.6A17.594,17.594,0,0,0,52.166,0Z" transform="translate(95.184 67.552)" fill="#e5e5e5"/>
              <path id="Path_18" data-name="Path 18" d="M0,0,5.9,17.736l11.463,128.2a18.347,18.347,0,0,0,17.781,18.442h84.9a17.594,17.594,0,0,0,17.594-17.594L148.343,17.736,153.06,0Z" transform="translate(9.999 120.192)" fill="#844e40"/>
              <path id="Path_19" data-name="Path 19" d="M0,164.378H34.856a17.594,17.594,0,0,0,17.594-17.594L63.158,17.734,67.875,0H0Z" transform="translate(95.184 120.192)" fill="#5e3128"/>
              <path id="Path_20" data-name="Path 20" d="M130.04,231.406H45.14a25.471,25.471,0,0,1-24.668-25.187L8.914,78.911,0,52.166v-27.5A24.715,24.715,0,0,1,24.668,0H147.305a24.715,24.715,0,0,1,24.668,24.668v28.3l-6.555,25.66-10.565,128.2A24.716,24.716,0,0,1,130.04,231.406ZM14.139,49.668,22.9,76.837l11.51,128.816a11.273,11.273,0,0,0,10.707,11.6H130.04a10.518,10.518,0,0,0,10.518-10.518v-.8L151.549,75.755l6.321-25.379V24.668a10.518,10.518,0,0,0-10.518-10.518H24.715A10.518,10.518,0,0,0,14.2,24.668Z" transform="translate(0 60.478)" fill="#35251c"/>
              <rect id="Rectangle_4" data-name="Rectangle 4" width="14.151" height="276.685" rx="0.9" transform="translate(16.308 1.619) rotate(-6.57)" fill="#35251c"/>
              <rect id="Rectangle_5" data-name="Rectangle 5" width="46.696" height="46.696" rx="2.5" transform="translate(95.883 146.966) rotate(66.76)" fill="#fff"/>
              <rect id="Rectangle_6" data-name="Rectangle 6" width="46.696" height="46.696" rx="2.5" transform="translate(124.57 247.308) rotate(180)" fill="#fff"/>
              <path id="Path_21" data-name="Path 21" d="M17.594,0H0V46.655H17.594A11.744,11.744,0,0,0,29.386,34.909V11.744A11.744,11.744,0,0,0,17.594,0Z" transform="translate(95.184 200.66)" fill="#e5e5e5"/>
              <path id="Path_22" data-name="Path 22" d="M5.331,5.708A11.463,11.463,0,0,0,0,0V45.987l8.3-3.538A11.792,11.792,0,0,0,14.48,26.977Z" transform="translate(95.184 152.077)" fill="#e5e5e5"/>
              <rect id="Rectangle_7" data-name="Rectangle 7" width="46.696" height="46.696" rx="2.5" transform="translate(150.711 125.253) rotate(108.652)" fill="#e5e5e5"/>
            </g>
          </g>
        </g>
      </g>
      <path id="Polygon_4" data-name="Polygon 4" d="M12.5,0,25,21.513H0Z" transform="matrix(-0.839, 0.545, -0.545, -0.839, 157.276, 40.56)" fill="#7209b7"/>
      <path id="Polygon_3" data-name="Polygon 3" d="M22.029,0,44.057,38.311H0Z" transform="translate(9.916 75.223) rotate(15)" fill="#7209b7"/>
      <path id="Polygon_6" data-name="Polygon 6" d="M22.029,0,44.057,38.311H0Z" transform="translate(76.621 299.51) rotate(-15)" fill="#7209b7"/>
      <path id="Polygon_2" data-name="Polygon 2" d="M15.053,0,30.105,26.178H0Z" transform="matrix(-0.866, 0.5, -0.5, -0.866, 265.5, 229.875)" fill="#7209b7"/>
      <path id="Polygon_5" data-name="Polygon 5" d="M10.878,0,21.755,18.918H0Z" transform="translate(21.755 199.944) rotate(-180)" fill="#7209b7"/>
      <circle id="Ellipse_4" data-name="Ellipse 4" cx="13.409" cy="13.409" r="13.409" transform="translate(47.306 148.273)" fill="#f3558e"/>
      <circle id="Ellipse_9" data-name="Ellipse 9" cx="13.409" cy="13.409" r="13.409" transform="translate(60.715 27.595)" fill="#f3558e"/>
      <circle id="Ellipse_5" data-name="Ellipse 5" cx="8.62" cy="8.62" r="8.62" transform="translate(191.929 292.896)" fill="#f3558e"/>
      <circle id="Ellipse_6" data-name="Ellipse 6" cx="13.888" cy="13.888" r="13.888" transform="translate(226.408 260.332)" fill="#f3558e"/>
      <circle id="Ellipse_10" data-name="Ellipse 10" cx="18.676" cy="18.676" r="18.676" transform="translate(186.182 218.19)" fill="#f3558e"/>
      <circle id="Ellipse_8" data-name="Ellipse 8" cx="13.888" cy="13.888" r="13.888" transform="translate(23.362 274.698)" fill="#f3558e"/>
      <circle id="Ellipse_7" data-name="Ellipse 7" cx="10.057" cy="10.057" r="10.057" transform="translate(16.658 218.19)" fill="#f3558e"/>
      <g id="Group_44" data-name="Group 44" transform="matrix(0.985, 0.174, -0.174, 0.985, 230.647, 73.302)">
        <line id="Line_1" data-name="Line 1" y2="9.394" transform="translate(4.697)" fill="none" stroke="#7209b7" stroke-width="1"/>
        <line id="Line_2" data-name="Line 2" x1="9.394" y2="0.213" transform="translate(0 4.483)" fill="none" stroke="#7209b7" stroke-width="1"/>
      </g>
      <g id="Group_45" data-name="Group 45" transform="translate(46.413 76.064) rotate(-30)">
        <line id="Line_1-2" data-name="Line 1" y2="15.989" transform="translate(8.487 0)" fill="none" stroke="#7209b7" stroke-width="1"/>
        <line id="Line_2-2" data-name="Line 2" x1="16.975" y2="0.213" transform="translate(0 7.704)" fill="none" stroke="#7209b7" stroke-width="1"/>
      </g>
      <g id="Group_48" data-name="Group 48" transform="translate(15.618 141.538) rotate(-8)">
        <line id="Line_1-3" data-name="Line 1" y2="15.989" transform="translate(8.487 0)" fill="none" stroke="#7209b7" stroke-width="1"/>
        <line id="Line_2-3" data-name="Line 2" x1="16.975" y2="0.213" transform="translate(0 7.704)" fill="none" stroke="#7209b7" stroke-width="1"/>
      </g>
      <g id="Group_11" data-name="Group 11" transform="translate(134.463 54.754)">
        <g id="Group_3" data-name="Group 3" transform="translate(0 0)">
          <g id="Group_1" data-name="Group 1" transform="translate(0 1.522) rotate(-1)">
            <g id="doge" transform="translate(0 0)">
              <circle id="Ellipse_2" data-name="Ellipse 2" cx="43.611" cy="43.611" r="43.611" fill="#7209b7"/>
              <path id="Path_6" data-name="Path 6" d="M11.633,18.108H23.449V24.37H11.633v13.2h7.442a18.65,18.65,0,0,0,7.24-1.2,10.586,10.586,0,0,0,4.423-3.317,12.051,12.051,0,0,0,2.181-4.976,31.22,31.22,0,0,0,.575-6.168,31.22,31.22,0,0,0-.575-6.168,12.04,12.04,0,0,0-2.181-4.976,10.6,10.6,0,0,0-4.423-3.317,18.65,18.65,0,0,0-7.24-1.178H11.611V18.111ZM4.058,24.37H0V18.111H4.058V.006H21.995A20.016,20.016,0,0,1,30.6,1.723a16.035,16.035,0,0,1,5.938,4.7,20.181,20.181,0,0,1,3.423,6.964,31.406,31.406,0,0,1,1.12,8.531,31.414,31.414,0,0,1-1.122,8.531,20.1,20.1,0,0,1-3.423,6.964,16.01,16.01,0,0,1-5.936,4.7,19.982,19.982,0,0,1-8.606,1.717H4.058Z" transform="translate(24.649 21.903)" fill="#fff" fill-rule="evenodd"/>
            </g>
          </g>
        </g>
      </g>
    </g>
  </g>
</svg>
