<svg width="253" height="253" viewBox="0 0 253 253" fill="none" xmlns="http://www.w3.org/2000/svg">
<path d="M71.587 220.182C70.9746 221.965 70.4715 223.43 69.9051 225.079C68.4134 224.616 67.0154 224.182 65.3532 223.666C65.3048 222.792 65.2515 221.827 65.1991 220.88C64.4861 220.325 63.5871 219.871 63.0112 219.126C61.5847 217.282 60.3586 215.259 58.9484 213.399C58.0788 212.252 57.2729 210.986 55.5172 211.078C54.8934 211.111 54.1154 210.266 53.5956 209.64C51.0065 206.522 49.0263 203.148 50.2892 198.749C49.1839 197.765 48.1633 196.856 47.1053 195.914C47.8771 194.266 48.5004 192.935 49.2431 191.35C48.1314 191.176 47.2433 191.037 46.0821 190.855C47.1691 189.542 48.1422 188.366 49.2903 186.979C48.3056 186.619 47.6078 186.364 46.4605 185.945C47.2287 185.505 47.5835 185.252 47.9707 185.09C49.9555 184.255 50.1039 183.46 48.5706 181.471C51.3541 179.634 48.6971 177.169 49.1687 175.001C49.3899 173.985 48.9893 172.811 48.831 171.342C50.4845 171.61 51.7868 171.822 53.6371 172.121C53.0257 171.107 52.8044 170.376 52.3376 170.026C49.8829 168.183 48.4367 164.224 49.2443 161.275C50.4431 156.898 51.8911 155.63 56.1013 155.962C57.6606 156.085 58.8871 155.739 59.2306 154.297C59.7085 152.291 61.2017 151.954 62.4267 151.97C64.5076 151.996 67.0531 150.078 68.4948 152.97C69.8645 152.646 71.1415 152.008 72.366 152.109C79.4865 152.698 85.2917 156.517 90.685 161.205C91.1998 161.652 91.7167 162.449 91.7574 163.117C91.9195 165.771 92.5813 168.717 91.7737 171.034C90.5828 174.452 90.0311 177.869 89.8536 182.129C89.3618 181.158 89.1912 180.821 88.7542 179.958C87.2736 181.822 85.9223 183.523 84.4839 185.334C85.2743 185.721 86.0681 186.11 87.1329 186.631C86.29 187.652 85.6375 188.443 84.6219 189.673C86.3056 190.128 87.5898 190.475 88.8711 190.821C88.1396 193.919 87.6627 194.065 83.8646 191.656C85.1391 194.197 86.0359 195.986 87.0022 197.912C88.4767 197.492 89.9726 196.115 92.0324 197.161C91.2307 199.349 88.0388 200.316 89.6708 203.525C90.4483 203.324 91.2877 203.108 92.7545 202.73C91.8142 203.566 91.3173 204.008 90.6567 204.595C91.5679 206.64 93.4659 207.162 95.1987 207.553C97.2685 208.02 99.1614 208.451 99.613 211.699C102.916 208.051 106.8 208.419 110.337 207.785C113.821 207.16 117.197 205.251 120.889 206.35C122.608 203.682 125.421 205.723 127.633 204.639C128.465 204.231 130.285 206.049 131.552 207.009C131.657 207.088 131.09 208.899 130.637 209.018C127.893 209.732 127.205 211.603 127.927 214.246C125.99 214.561 124.336 214.829 122.38 215.147C122.616 215.937 122.878 216.81 123.29 218.182C120.08 217.943 116.854 217.32 113.459 218.681C114.098 219.383 114.636 219.975 115.187 220.581C114.844 220.768 114.527 221.02 114.469 220.963C112.889 219.417 111.046 219.4 109.007 219.286C106.821 219.164 104.663 218.873 102.459 219.112C101.24 219.244 100.302 219.481 99.4216 220.631C98.0278 222.453 96.2786 223.581 93.9286 222.081C93.3451 221.708 92.3831 222.025 91.264 222.025C89.9478 218.091 86.0292 221.045 83.4853 218.883C82.246 220.375 81.1148 221.727 79.9939 223.089C78.9582 224.347 77.7451 224.407 76.6394 223.203C76.2141 222.74 75.8988 222.15 75.4436 221.732C75.0086 221.332 74.4569 221.08 73.7915 220.659C73.7423 221.605 73.6975 222.465 73.6528 223.326L71.587 220.182ZM77.0393 217.101C76.7458 217.435 76.4524 217.768 76.1589 218.102C76.6387 218.473 77.1185 218.845 77.5983 219.217C77.8158 218.951 78.0334 218.684 78.251 218.417C77.8471 217.978 77.4432 217.54 77.0393 217.101ZM168.827 130.064C169.577 129.595 170.083 129.279 170.88 128.781C170.965 129.693 171.344 130.644 171.058 131.191C169.177 134.79 166.363 137.542 163.624 140.364C161.63 142.417 159.303 143.71 156.652 144.394C156.423 144.453 156.112 144.389 155.965 144.533C153.068 147.347 149.408 145.704 146.148 146.355C144.385 146.708 142.34 145.63 140.461 145.051C137.866 144.252 135.299 143.346 132.741 142.418C132.084 142.18 131.109 141.822 130.956 141.292C129.826 137.384 126.54 136.824 123.685 135.557C123.379 135.421 123.153 135.073 122.726 134.667C124.543 132.109 126.852 130.157 129.577 129.215C131.1 128.689 131.667 127.833 132.1 126.462C134.85 126.453 137.099 125.249 139.302 123.64C142.297 121.453 145.458 119.531 148.103 117.788C156.303 120.123 163.714 122.641 168.827 130.064ZM152.261 126.681C147.918 123.557 145.132 123.453 142.317 126.647C140.898 128.258 139.9 130.37 138.991 132.401C138.569 133.344 138.498 134.765 138.841 135.731C139.213 136.776 140.129 137.87 141.06 138.286C141.492 138.479 142.574 137.174 143.256 136.435C143.554 136.112 143.549 135.486 143.747 135.031C144.873 132.449 146.018 129.877 147.053 127.538C149.017 127.354 150.706 128.737 152.261 126.681ZM67.6333 128.515C68.5389 126.724 69.6606 125.331 69.9182 123.772C70.1941 122.102 69.3029 120.213 69.56 118.533C69.9125 116.229 70.8668 114.032 71.6363 111.553C69.4395 111.4 69.1234 114.241 66.9423 114.902C67.0212 113.829 66.8518 112.746 67.1998 111.916C71.0857 102.65 81.7492 104.145 85.6455 109.626C86.4997 110.828 87.5388 111.876 88.4236 112.914C87.8319 122.662 81.7611 127.324 74.5216 130.819C73.6296 131.249 72.3053 130.909 71.264 130.601C70.7033 130.435 70.3952 129.441 69.8312 129.075C69.3122 128.738 68.603 128.741 67.6333 128.515ZM73.2787 113.839C75.3741 114.524 75.8185 113.484 75.9022 111.641C74.2277 111.091 73.6771 111.999 73.2787 113.839ZM83.7378 113.611C82.6771 112.692 81.7985 112.735 81.1519 113.93C81.0204 114.173 81.302 114.994 81.5643 115.114C82.8404 115.7 83.4411 114.979 83.7378 113.611ZM66.5122 126.12C68.024 123.411 65.7231 121.161 65.8651 118.617C64.1003 121.357 66.3986 123.607 66.5122 126.12Z" fill="#C3A634"/>
<path d="M64.4 47.1262V7.44098C64.4 5.46751 65.127 3.57487 66.421 2.17941C67.715 0.783957 69.47 0 71.3 0C73.13 0 74.885 0.783957 76.179 2.17941C77.473 3.57487 78.2 5.46751 78.2 7.44098V47.1262C78.2 49.0997 77.473 50.9923 76.179 52.3878C74.885 53.7832 73.13 54.5672 71.3 54.5672C69.47 54.5672 67.715 53.7832 66.421 52.3878C65.127 50.9923 64.4 49.0997 64.4 47.1262ZM108.1 54.5672C109.93 54.5671 111.685 53.7831 112.979 52.3877C114.273 50.9922 115 49.0997 115 47.1262V7.44098C115 5.46751 114.273 3.57487 112.979 2.17941C111.685 0.783957 109.93 0 108.1 0C106.27 0 104.515 0.783957 103.221 2.17941C101.927 3.57487 101.2 5.46751 101.2 7.44098V47.1262C101.2 49.0997 101.927 50.9922 103.221 52.3877C104.515 53.7831 106.27 54.5671 108.1 54.5672ZM144.9 54.5672C146.73 54.5671 148.485 53.7831 149.779 52.3877C151.073 50.9922 151.8 49.0997 151.8 47.1262V7.44098C151.8 5.46751 151.073 3.57487 149.779 2.17941C148.485 0.783957 146.73 0 144.9 0C143.07 0 141.315 0.783957 140.021 2.17941C138.727 3.57487 138 5.46751 138 7.44098V47.1262C138 49.0997 138.727 50.9922 140.021 52.3877C141.315 53.7831 143.07 54.5671 144.9 54.5672ZM253 126.497V136.418C252.985 148.683 248.542 160.459 240.612 169.25C232.682 178.041 221.889 183.156 210.521 183.511C203.752 205.071 191.314 224.042 174.723 238.111H209.3C211.13 238.111 212.885 238.895 214.179 240.291C215.473 241.686 216.2 243.579 216.2 245.552C216.2 247.526 215.473 249.418 214.179 250.814C212.885 252.209 211.13 252.993 209.3 252.993H150.432C150.392 252.994 150.352 253 150.313 253C150.283 253 150.254 252.994 150.224 252.993H65.8302C65.7673 252.993 65.7044 252.996 65.6415 252.993H6.9C5.07001 252.993 3.31496 252.209 2.02096 250.814C0.726961 249.418 0 247.526 0 245.552C0 243.579 0.726961 241.686 2.02096 240.291C3.31496 238.895 5.07001 238.111 6.9 238.111H41.4775C28.582 227.189 18.1501 213.257 10.966 197.362C3.78197 181.467 0.0326819 164.022 0 146.339V86.8114C8.8442e-05 84.838 0.727079 82.9454 2.02106 81.55C3.31504 80.1545 5.07003 79.3706 6.9 79.3705H209.3C220.886 79.3847 231.994 84.3543 240.186 93.1891C248.379 102.024 252.987 114.002 253 126.497ZM198.678 174.509C198.731 174.251 198.796 173.995 198.875 173.744C201.209 164.826 202.395 155.605 202.4 146.339V94.2524H13.8V146.339C13.8355 165.53 18.8887 184.32 28.3795 200.553C37.8703 216.786 51.414 229.804 67.4552 238.111H148.745C160.748 231.893 171.399 223.015 180.003 212.055C188.607 201.095 194.971 188.302 198.678 174.509ZM239.2 126.497C239.19 119.242 236.916 112.202 232.744 106.512C228.571 100.821 222.744 96.8115 216.2 95.1286V146.339C216.196 153.68 215.545 161.003 214.255 168.211C221.224 166.939 227.551 163.049 232.116 157.231C236.681 151.412 239.19 144.04 239.2 136.418V126.497Z" fill="#C3A634"/>
</svg>
