<svg xmlns="http://www.w3.org/2000/svg" width="80.671" height="80.29" viewBox="0 0 80.671 80.29"><g transform="translate(-69 -45.043)"><g transform="translate(416 82.33)"><g transform="translate(-538.838 -80.95)"><g transform="translate(215.556 51.416) rotate(-1)"><g transform="translate(0)"><circle cx="15.775" cy="15.775" r="15.775" fill="#7209b7"/><path d="M4.208,6.548H8.482V8.813H4.208v4.773H6.9a6.746,6.746,0,0,0,2.619-.433,3.829,3.829,0,0,0,1.6-1.2,4.359,4.359,0,0,0,.789-1.8,11.293,11.293,0,0,0,.208-2.231,11.293,11.293,0,0,0-.208-2.231,4.355,4.355,0,0,0-.789-1.8,3.835,3.835,0,0,0-1.6-1.2A6.746,6.746,0,0,0,6.9,2.265h-2.7V6.549ZM1.468,8.813H0V6.549H1.468V0H7.956a7.24,7.24,0,0,1,3.113.621,5.8,5.8,0,0,1,2.148,1.7,7.3,7.3,0,0,1,1.238,2.519,11.36,11.36,0,0,1,.405,3.086,11.363,11.363,0,0,1-.406,3.086,7.271,7.271,0,0,1-1.238,2.519,5.791,5.791,0,0,1-2.147,1.7,7.228,7.228,0,0,1-3.113.621H1.468Z" transform="translate(8.916 7.925)" fill="#fff" fill-rule="evenodd"/></g></g></g></g><path d="M21.327,48.877V46.255A1.254,1.254,0,0,0,20.073,45H2.509a1.254,1.254,0,0,0-1.255,1.255V66.327H0v2.509H25.091V66.327H21.327V64.96A7.532,7.532,0,0,0,27.6,57.545V56.291A7.534,7.534,0,0,0,21.327,48.877ZM3.764,66.327V47.509H18.818V66.327Zm21.327-8.782A5.026,5.026,0,0,1,21.327,62.4V51.432a5.026,5.026,0,0,1,3.764,4.859Z" transform="translate(69 56.497)" fill="#7209b7"/><path d="M45.836,36.764H43.327V34.255A1.254,1.254,0,0,0,42.073,33H27.018a1.254,1.254,0,0,0-1.255,1.255v2.509H23.255A1.254,1.254,0,0,0,22,38.018v5.018a1.254,1.254,0,0,0,1.255,1.255h1.31l1.2,26.4a1.255,1.255,0,0,0,1.253,1.2H42.073a1.255,1.255,0,0,0,1.253-1.2l1.2-26.4h1.31a1.254,1.254,0,0,0,1.255-1.255V38.018A1.254,1.254,0,0,0,45.836,36.764ZM40.873,69.381H28.217l-1.14-25.091H42.015Zm3.708-27.6H24.509V39.273h2.509a1.254,1.254,0,0,0,1.255-1.255V35.509H40.818v2.509a1.254,1.254,0,0,0,1.255,1.255h2.509Z" transform="translate(74.6 53.442)" fill="#7209b7"/><path d="M33.018,56.036A5.018,5.018,0,1,0,28,51.018,5.023,5.023,0,0,0,33.018,56.036Zm0-7.527a2.509,2.509,0,1,1-2.509,2.509A2.512,2.512,0,0,1,33.018,48.509Z" transform="translate(76.127 56.751)" fill="#7209b7"/><path d="M55.018,53.036A5.018,5.018,0,1,0,50,48.018,5.023,5.023,0,0,0,55.018,53.036Zm0-7.527a2.509,2.509,0,1,1-2.509,2.509A2.512,2.512,0,0,1,55.018,45.509Z" transform="translate(81.727 55.988)" fill="#7209b7"/><path d="M68.091,40.034a1.254,1.254,0,0,0,1.255-1.255A12.562,12.562,0,0,0,58.054,26.3V19.962a1.249,1.249,0,0,0-.368-.887l-8.782-8.782-1.774,1.774,8.414,8.414V26.3A12.563,12.563,0,0,0,44.255,38.78a1.254,1.254,0,0,0,1.255,1.255h.041l1.17,35.127H43V77.67H69.345V75.161H66.879l1.17-35.127Zm-1.332-2.509H62.337L65.7,34.159A9.967,9.967,0,0,1,66.758,37.525Zm-2.513-5.456L58.79,37.525H52.3l8.109-8.109A10.061,10.061,0,0,1,64.245,32.069ZM56.8,28.743c.237,0,.469.016.7.033l-8.749,8.749H46.841A10.054,10.054,0,0,1,56.8,28.743ZM64.745,63.87H48.855l-.5-15.054H65.247ZM49.231,75.161l-.292-8.782H64.661l-.292,8.782Zm16.1-28.854H48.269l-.21-6.273H65.539Z" transform="translate(79.945 47.663)" fill="#7209b7"/><path d="M2.994,30.427a3.968,3.968,0,0,1,0,5.287,6.453,6.453,0,0,0,0,8.274A3.82,3.82,0,0,1,4,46.632H6.512a6.264,6.264,0,0,0-1.5-4.137,3.97,3.97,0,0,1,0-5.288,6.264,6.264,0,0,0,1.5-4.137,6.259,6.259,0,0,0-1.5-4.135A3.816,3.816,0,0,1,4,26.292H1.494A6.259,6.259,0,0,0,2.994,30.427Z" transform="translate(69.38 51.735)" fill="#7209b7"/><path d="M6.494,39.852a6.263,6.263,0,0,0,1.5,4.136A3.82,3.82,0,0,1,9,46.633h2.509a6.264,6.264,0,0,0-1.5-4.137,3.97,3.97,0,0,1,0-5.288,6.451,6.451,0,0,0,0-8.272A3.816,3.816,0,0,1,9,26.293H6.494a6.259,6.259,0,0,0,1.5,4.135,3.968,3.968,0,0,1,0,5.287A6.261,6.261,0,0,0,6.494,39.852Z" transform="translate(70.653 51.735)" fill="#7209b7"/><path d="M11.494,39.852a6.263,6.263,0,0,0,1.5,4.136A3.82,3.82,0,0,1,14,46.633h2.509a6.264,6.264,0,0,0-1.5-4.137,3.97,3.97,0,0,1,0-5.288,6.451,6.451,0,0,0,0-8.272A3.816,3.816,0,0,1,14,26.293H11.494a6.259,6.259,0,0,0,1.5,4.135,3.968,3.968,0,0,1,0,5.287A6.261,6.261,0,0,0,11.494,39.852Z" transform="translate(71.926 51.735)" fill="#7209b7"/><rect width="2.283" height="2.283" transform="translate(69 60.264)" fill="#7209b7"/><rect width="2.283" height="2.283" transform="translate(74.327 60.264)" fill="#7209b7"/><rect width="2.283" height="3.044" transform="translate(69 64.83)" fill="#7209b7"/><rect width="2.283" height="3.044" transform="translate(74.327 64.83)" fill="#7209b7"/><rect width="2.283" height="2.283" transform="translate(69 54.936)" fill="#7209b7"/><rect width="2.283" height="2.283" transform="translate(74.327 54.936)" fill="#7209b7"/><rect width="2.283" height="2.283" transform="translate(78.894 54.936)" fill="#7209b7"/><rect width="2.283" height="2.283" transform="translate(69 50.37)" fill="#7209b7"/><rect width="2.283" height="2.283" transform="translate(74.327 50.37)" fill="#7209b7"/><rect width="2.283" height="2.283" transform="translate(78.894 50.37)" fill="#7209b7"/><rect width="2.283" height="2.283" transform="translate(78.894 60.264)" fill="#7209b7"/><rect width="2.283" height="2.283" transform="translate(69 45.043)" fill="#7209b7"/><rect width="2.283" height="2.283" transform="translate(74.327 45.043)" fill="#7209b7"/><rect width="2.283" height="2.283" transform="translate(78.894 45.043)" fill="#7209b7"/><rect width="2.283" height="2.283" transform="translate(84.221 50.37)" fill="#7209b7"/><rect width="2.283" height="2.283" transform="translate(84.221 54.936)" fill="#7209b7"/><rect width="3.044" height="2.283" transform="translate(88.787 50.37)" fill="#7209b7"/><rect width="2.283" height="2.283" transform="translate(84.221 45.043)" fill="#7209b7"/><rect width="2.283" height="2.283" transform="translate(142.06 54.936)" fill="#7209b7"/><rect width="2.283" height="2.283" transform="translate(142.06 50.37)" fill="#7209b7"/><rect width="3.044" height="2.283" transform="translate(131.406 45.043)" fill="#7209b7"/><rect width="2.283" height="2.283" transform="translate(136.733 45.043)" fill="#7209b7"/><rect width="2.283" height="2.283" transform="translate(142.06 45.043)" fill="#7209b7"/><rect width="3.044" height="2.283" transform="translate(146.626 50.37)" fill="#7209b7"/><rect width="3.044" height="2.283" transform="translate(146.626 54.936)" fill="#7209b7"/><rect width="3.044" height="2.283" transform="translate(146.626 45.043)" fill="#7209b7"/><rect width="3.044" height="2.283" transform="translate(88.787 45.043)" fill="#7209b7"/><rect width="2.283" height="2.283" transform="translate(94.114 45.043)" fill="#7209b7"/><rect width="2.283" height="2.283" transform="translate(99.442 45.043)" fill="#7209b7"/><rect width="2.283" height="2.283" transform="translate(104.008 45.043)" fill="#7209b7"/><rect width="2.283" height="2.283" transform="translate(109.335 45.043)" fill="#7209b7"/></g></svg>