<svg width="280" height="260" viewBox="0 0 280 260" fill="none" xmlns="http://www.w3.org/2000/svg">
<path d="M79.2268 225.963C78.549 227.793 77.9922 229.296 77.3654 230.989C75.7145 230.514 74.1673 230.069 72.3276 229.539C72.2741 228.642 72.2151 227.652 72.1571 226.68C71.368 226.11 70.373 225.644 69.7357 224.88C68.157 222.988 66.8001 220.911 65.2394 219.002C64.277 217.825 63.385 216.526 61.442 216.621C60.7516 216.654 59.8905 215.787 59.3153 215.145C56.4499 211.945 54.2584 208.482 55.6561 203.968C54.4328 202.958 53.3033 202.025 52.1323 201.058C52.9865 199.367 53.6764 198.001 54.4983 196.374C53.2679 196.195 52.2851 196.053 51 195.866C52.2029 194.519 53.2799 193.312 54.5506 191.889C53.4608 191.519 52.6885 191.258 51.4187 190.827C52.269 190.376 52.6615 190.117 53.0901 189.95C55.2868 189.093 55.4509 188.277 53.754 186.236C56.8346 184.35 53.894 181.821 54.416 179.596C54.6607 178.553 54.2174 177.349 54.0422 175.841C55.8722 176.117 57.3135 176.333 59.3612 176.641C58.6846 175.6 58.4396 174.85 57.923 174.49C55.2064 172.599 53.6058 168.536 54.4996 165.51C55.8264 161.018 57.4289 159.717 62.0884 160.057C63.8141 160.183 65.1715 159.828 65.5517 158.348C66.0805 156.29 67.7331 155.944 69.0889 155.96C71.3918 155.987 74.209 154.019 75.8045 156.987C77.3204 156.654 78.7337 155.999 80.0889 156.103C87.9692 156.708 94.3939 160.627 100.363 165.438C100.933 165.897 101.505 166.714 101.55 167.4C101.729 170.124 102.461 173.147 101.568 175.525C100.25 179.032 99.6392 182.54 99.4428 186.912C98.8984 185.914 98.7097 185.569 98.226 184.683C96.5874 186.596 95.0919 188.342 93.5 190.201C94.3747 190.598 95.2532 190.997 96.4317 191.532C95.4988 192.58 94.7766 193.391 93.6527 194.653C95.516 195.12 96.9374 195.476 98.3554 195.831C97.5458 199.011 97.018 199.161 92.8145 196.688C94.225 199.296 95.2176 201.132 96.287 203.109C97.9189 202.678 99.5744 201.265 101.854 202.338C100.967 204.584 97.4342 205.576 99.2404 208.869C100.101 208.663 101.03 208.441 102.653 208.054C101.613 208.911 101.063 209.364 100.332 209.967C101.34 212.066 103.44 212.601 105.358 213.003C107.649 213.482 109.744 213.925 110.244 217.257C113.899 213.514 118.197 213.891 122.112 213.241C125.968 212.6 129.705 210.641 133.79 211.768C135.692 209.03 138.805 211.125 141.254 210.012C142.175 209.594 144.189 211.459 145.591 212.444C145.707 212.526 145.08 214.385 144.578 214.506C141.542 215.24 140.78 217.159 141.579 219.872C139.436 220.194 137.605 220.47 135.44 220.797C135.702 221.607 135.992 222.503 136.447 223.911C132.895 223.665 129.325 223.026 125.568 224.423C126.274 225.144 126.87 225.752 127.479 226.373C127.1 226.565 126.749 226.823 126.685 226.765C124.937 225.178 122.896 225.16 120.64 225.044C118.221 224.918 115.833 224.62 113.393 224.865C112.044 225.001 111.006 225.244 110.032 226.424C108.489 228.294 106.553 229.452 103.953 227.912C103.307 227.53 102.242 227.855 101.004 227.855C99.547 223.817 95.2101 226.849 92.3948 224.631C91.0232 226.162 89.7713 227.549 88.5308 228.947C87.3846 230.238 86.042 230.299 84.8183 229.064C84.3477 228.589 83.9987 227.984 83.4949 227.554C83.0135 227.144 82.4029 226.885 81.6665 226.453C81.612 227.424 81.5625 228.307 81.5129 229.19L79.2268 225.963ZM85.2608 222.802C84.9361 223.144 84.6113 223.486 84.2866 223.828C84.8176 224.21 85.3485 224.592 85.8795 224.973C86.1203 224.7 86.3611 224.426 86.6019 224.152C86.1548 223.702 85.7079 223.252 85.2608 222.802V222.802ZM186.844 133.48C187.674 132.998 188.234 132.674 189.116 132.162C189.21 133.098 189.63 134.074 189.313 134.636C187.231 138.329 184.117 141.154 181.085 144.049C178.879 146.157 176.304 147.483 173.37 148.185C173.116 148.246 172.772 148.181 172.609 148.328C169.404 151.216 165.353 149.529 161.745 150.198C159.793 150.56 157.531 149.454 155.451 148.86C152.579 148.04 149.738 147.11 146.907 146.158C146.18 145.913 145.101 145.546 144.932 145.002C143.681 140.992 140.044 140.417 136.885 139.117C136.545 138.977 136.295 138.619 135.823 138.203C137.835 135.578 140.39 133.575 143.405 132.608C145.091 132.068 145.718 131.19 146.198 129.783C149.241 129.773 151.731 128.538 154.168 126.887C157.482 124.642 160.981 122.669 163.909 120.881C172.984 123.277 181.186 125.861 186.844 133.48V133.48ZM168.511 130.008C163.704 126.801 160.62 126.694 157.505 129.973C155.934 131.625 154.83 133.793 153.824 135.878C153.357 136.845 153.278 138.303 153.658 139.295C154.069 140.367 155.083 141.491 156.113 141.917C156.592 142.116 157.789 140.776 158.544 140.018C158.874 139.686 158.868 139.044 159.088 138.576C160.334 135.927 161.601 133.288 162.746 130.887C164.92 130.698 166.789 132.118 168.511 130.008V130.008ZM74.8511 131.889C75.8533 130.051 77.0948 128.622 77.3798 127.022C77.6852 125.308 76.6989 123.369 76.9834 121.645C77.3735 119.281 78.4296 117.026 79.2813 114.482C76.8501 114.326 76.5002 117.24 74.0863 117.919C74.1736 116.818 73.9861 115.707 74.3714 114.855C78.6719 105.345 90.4734 106.879 94.7856 112.505C95.7309 113.738 96.8809 114.814 97.8601 115.879C97.2052 125.883 90.4866 130.667 82.4745 134.254C81.4873 134.696 80.0216 134.346 78.8692 134.03C78.2487 133.86 77.9078 132.84 77.2836 132.464C76.7092 132.118 75.9243 132.122 74.8511 131.889V131.889ZM81.0989 116.828C83.418 117.531 83.9098 116.464 84.0024 114.573C82.1492 114.008 81.5398 114.94 81.0989 116.828ZM92.6743 116.594C91.5004 115.651 90.528 115.695 89.8124 116.922C89.6668 117.171 89.9785 118.013 90.2688 118.137C91.6811 118.738 92.3459 117.998 92.6743 116.594V116.594ZM73.6104 129.432C75.2835 126.652 72.7371 124.343 72.8942 121.732C70.941 124.543 73.4847 126.853 73.6104 129.432Z" fill="black"/>
<path d="M71.2727 48.3636V7.63636C71.2727 5.61107 72.0773 3.66873 73.5094 2.23664C74.9415 0.804542 76.8838 0 78.9091 0C80.9344 0 82.8767 0.804542 84.3088 2.23664C85.7409 3.66873 86.5455 5.61107 86.5455 7.63636V48.3636C86.5455 50.3889 85.7409 52.3313 84.3088 53.7634C82.8767 55.1955 80.9344 56 78.9091 56C76.8838 56 74.9415 55.1955 73.5094 53.7634C72.0773 52.3313 71.2727 50.3889 71.2727 48.3636V48.3636ZM119.636 56C121.662 55.9999 123.604 55.1953 125.036 53.7633C126.468 52.3312 127.273 50.3889 127.273 48.3636V7.63636C127.273 5.61107 126.468 3.66873 125.036 2.23664C123.604 0.804542 121.662 0 119.636 0C117.611 0 115.669 0.804542 114.237 2.23664C112.805 3.66873 112 5.61107 112 7.63636V48.3636C112 50.3889 112.805 52.3312 114.237 53.7633C115.669 55.1953 117.611 55.9999 119.636 56V56ZM160.364 56C162.389 55.9999 164.331 55.1953 165.763 53.7633C167.195 52.3312 168 50.3889 168 48.3636V7.63636C168 5.61107 167.195 3.66873 165.763 2.23664C164.331 0.804542 162.389 0 160.364 0C158.338 0 156.396 0.804542 154.964 2.23664C153.532 3.66873 152.727 5.61107 152.727 7.63636V48.3636C152.727 50.3889 153.532 52.3312 154.964 53.7633C156.396 55.1953 158.338 55.9999 160.364 56V56ZM280 129.818V140C279.984 152.587 275.066 164.672 266.29 173.694C257.514 182.716 245.569 187.966 232.987 188.329C225.497 210.455 211.731 229.925 193.369 244.364H231.636C233.662 244.364 235.604 245.168 237.036 246.6C238.468 248.032 239.273 249.975 239.273 252C239.273 254.025 238.468 255.968 237.036 257.4C235.604 258.832 233.662 259.636 231.636 259.636H166.486C166.442 259.637 166.398 259.643 166.354 259.643C166.321 259.643 166.289 259.637 166.256 259.636H72.8556C72.786 259.636 72.7164 259.639 72.6467 259.636H7.63636C5.61107 259.636 3.66873 258.832 2.23664 257.4C0.804542 255.968 0 254.025 0 252C0 249.975 0.804542 248.032 2.23664 246.6C3.66873 245.168 5.61107 244.364 7.63636 244.364H45.9039C31.6322 233.155 20.087 218.857 12.1363 202.544C4.18558 186.232 0.0361697 168.329 0 150.182V89.0909C9.78804e-05 87.0657 0.804673 85.1234 2.23675 83.6913C3.66882 82.2592 5.6111 81.4546 7.63636 81.4546H231.636C244.459 81.4691 256.752 86.5692 265.819 95.636C274.885 104.703 279.985 116.996 280 129.818V129.818ZM219.88 179.092C219.939 178.826 220.012 178.564 220.099 178.306C222.682 169.154 223.995 159.691 224 150.182V96.7273H15.2727V150.182C15.312 169.876 20.9045 189.16 31.4082 205.819C41.9118 222.479 56.9008 235.838 74.654 244.364H164.619C177.902 237.982 189.691 228.87 199.213 217.623C208.735 206.376 215.778 193.246 219.88 179.092V179.092ZM264.727 129.818C264.717 122.373 262.2 115.148 257.582 109.309C252.964 103.469 246.515 99.3535 239.273 97.6265V150.182C239.269 157.715 238.548 165.231 237.121 172.628C244.833 171.322 251.835 167.331 256.887 161.359C261.939 155.388 264.717 147.822 264.727 140V129.818Z" fill="black"/>
</svg>
