<svg xmlns="http://www.w3.org/2000/svg" width="35" height="35" viewBox="0 0 35 35">
  <g id="Group_21" data-name="Group 21" transform="translate(351.775 -8.225)">
    <path id="Path_34" data-name="Path 34" d="M-310.385,37.5l-.216,2.875h-2.8V50h-3.689V40.373h-1.868V37.5h1.868V34.72s-.132-3.182,3.689-3.354a12.4,12.4,0,0,1,3.4.336l-.392,2.826s-3.01-.933-3.01.886V37.5h3.018Z" transform="translate(-19.795 -14.953)" fill="#3b589d"/>
    <path id="Path_35" data-name="Path 35" d="M-334.275,43.225a17.52,17.52,0,0,1-17.5-17.5,17.52,17.52,0,0,1,17.5-17.5,17.52,17.52,0,0,1,17.5,17.5A17.52,17.52,0,0,1-334.275,43.225Zm0-32.6a15.112,15.112,0,0,0-15.1,15.1,15.113,15.113,0,0,0,15.1,15.1,15.113,15.113,0,0,0,15.1-15.1A15.112,15.112,0,0,0-334.275,10.629Z" fill="#3b589d"/>
  </g>
</svg>
