<svg xmlns="http://www.w3.org/2000/svg" xmlns:xlink="http://www.w3.org/1999/xlink" width="35" height="35" viewBox="0 0 35 35">
  <defs>
    <linearGradient id="linear-gradient" x1="0.147" y1="0.853" x2="0.853" y2="0.147" gradientUnits="objectBoundingBox">
      <stop offset="0" stop-color="#ffbd00"/>
      <stop offset="0.4" stop-color="#ca3744"/>
      <stop offset="1" stop-color="#803ddf"/>
    </linearGradient>
  </defs>
  <path id="Path_39" data-name="Path 39" d="M33.325,20.47a4.1,4.1,0,0,0-2.346-2.346,5.909,5.909,0,0,0-1.947-.372c-.855-.04-1.129-.048-3.307-.048s-2.453.009-3.308.048a5.9,5.9,0,0,0-1.946.372,4.092,4.092,0,0,0-2.346,2.346,5.887,5.887,0,0,0-.373,1.948c-.039.855-.049,1.129-.049,3.307s.01,2.452.049,3.307a5.873,5.873,0,0,0,.373,1.947,4.1,4.1,0,0,0,2.346,2.347,5.923,5.923,0,0,0,1.946.373c.855.038,1.13.048,3.308.048s2.452-.01,3.307-.048a5.926,5.926,0,0,0,1.947-.373,4.1,4.1,0,0,0,2.346-2.347,5.856,5.856,0,0,0,.372-1.947c.04-.855.049-1.129.049-3.307s-.009-2.452-.049-3.307A5.879,5.879,0,0,0,33.325,20.47Zm-1.07,8.5a4.429,4.429,0,0,1-.277,1.49,2.459,2.459,0,0,1-.6.921,2.5,2.5,0,0,1-.922.6,4.463,4.463,0,0,1-1.489.275c-.846.039-1.1.047-3.242.047s-2.4-.008-3.242-.047a4.475,4.475,0,0,1-1.49-.275,2.673,2.673,0,0,1-1.522-1.523,4.5,4.5,0,0,1-.276-1.49c-.039-.847-.046-1.1-.046-3.242s.008-2.4.046-3.24a4.5,4.5,0,0,1,.276-1.49,2.665,2.665,0,0,1,1.522-1.522,4.423,4.423,0,0,1,1.49-.276c.846-.038,1.1-.046,3.242-.046s2.4.009,3.242.046a4.421,4.421,0,0,1,1.489.276,2.658,2.658,0,0,1,1.522,1.522,4.423,4.423,0,0,1,.277,1.49c.038.845.046,1.1.046,3.24S32.293,28.12,32.255,28.967Zm-6.53-7.36a4.119,4.119,0,1,0,4.119,4.118A4.117,4.117,0,0,0,25.725,21.607Zm0,6.793A2.674,2.674,0,1,1,28.4,25.725,2.674,2.674,0,0,1,25.725,28.4Zm5.245-6.956a.963.963,0,1,1-.963-.964A.963.963,0,0,1,30.97,21.444ZM25.724,8.225a17.5,17.5,0,1,0,17.5,17.5A17.519,17.519,0,0,0,25.724,8.225Zm0,32.6a15.1,15.1,0,1,1,15.1-15.1A15.112,15.112,0,0,1,25.724,40.82Z" transform="translate(-8.225 -8.225)" fill="url(#linear-gradient)"/>
</svg>
