<svg xmlns="http://www.w3.org/2000/svg" width="35" height="35" viewBox="0 0 35 35">
  <g id="Group_20" data-name="Group 20" transform="translate(231.776 -8.225)">
    <path id="Path_32" data-name="Path 32" d="M-187.214,36.4a8.4,8.4,0,0,1-2.646,1.012,4.167,4.167,0,0,0-3.041-1.316,4.166,4.166,0,0,0-4.166,4.166,4.167,4.167,0,0,0,.107.948,11.824,11.824,0,0,1-8.587-4.352,4.144,4.144,0,0,0-.564,2.1,4.163,4.163,0,0,0,1.854,3.467,4.138,4.138,0,0,1-1.887-.522c0,.017,0,.036,0,.054a4.167,4.167,0,0,0,3.343,4.084,4.149,4.149,0,0,1-1.1.148,4.2,4.2,0,0,1-.783-.075A4.169,4.169,0,0,0-200.793,49a8.353,8.353,0,0,1-5.175,1.784,8.145,8.145,0,0,1-.993-.059,11.8,11.8,0,0,0,6.387,1.872,11.773,11.773,0,0,0,11.854-11.854c0-.18,0-.36-.012-.54a8.461,8.461,0,0,0,2.078-2.156,8.349,8.349,0,0,1-2.393.655A4.179,4.179,0,0,0-187.214,36.4Z" transform="translate(-17.469 -17.746)" fill="#299df4"/>
    <path id="Path_33" data-name="Path 33" d="M-214.276,8.225a17.52,17.52,0,0,0-17.5,17.5,17.52,17.52,0,0,0,17.5,17.5,17.52,17.52,0,0,0,17.5-17.5A17.52,17.52,0,0,0-214.276,8.225Zm0,32.6a15.113,15.113,0,0,1-15.1-15.1,15.113,15.113,0,0,1,15.1-15.1,15.113,15.113,0,0,1,15.1,15.1A15.113,15.113,0,0,1-214.276,40.82Z" fill="#299df4"/>
  </g>
</svg>
