<svg xmlns="http://www.w3.org/2000/svg" width="35" height="35" viewBox="0 0 35 35">
  <path id="Path_44" data-name="Path 44" d="M164.888,37.557a75.868,75.868,0,0,0-11.521,0,2.545,2.545,0,0,0-2.268,2.079,25.278,25.278,0,0,0,0,6.311,2.546,2.546,0,0,0,2.269,2.079,75.813,75.813,0,0,0,11.521,0,2.547,2.547,0,0,0,2.267-2.079,25.4,25.4,0,0,0,0-6.311A2.548,2.548,0,0,0,164.888,37.557Zm-7.736,7.453V40.573l3.949,2.218Z" transform="translate(-141.627 -25.016)" fill="#e12603"/>
  <path id="Path_45" data-name="Path 45" d="M145.725,8.225a17.5,17.5,0,1,0,17.5,17.5A17.52,17.52,0,0,0,145.725,8.225Zm0,32.6a15.1,15.1,0,1,1,15.1-15.1A15.113,15.113,0,0,1,145.725,40.82Z" transform="translate(-128.225 -8.225)" fill="#e12603"/>
</svg>
